<?xml version="1.0" encoding="UTF-8" standalone="yes"?>
<svg width="1000" height="1000" version="1.2" baseProfile="tiny-ps" xmlns="http://www.w3.org/2000/svg">
  <title>bimi-svg-tiny-12-ps</title>
  <path fill="#F66" d="M854.822 840H705.356V199.496h149.466zM372.135 513.813c38.686 0 66.527-9.232 83.525-27.695 16.998-18.463 25.497-44.254 25.497-77.37 0-14.654-2.198-27.989-6.594-40.005-4.396-12.015-11.063-22.346-20.002-30.992-8.938-8.645-20.222-15.313-33.85-20.002-13.627-4.689-29.82-7.033-48.576-7.033h-77.37v203.097h77.37Zm0-314.317c45.133 0 83.892 5.348 116.276 16.045 32.384 10.697 59.053 25.424 80.008 44.18 20.954 18.757 36.414 40.884 46.378 66.38 9.965 25.498 14.947 53.046 14.947 82.646 0 31.945-5.129 61.252-15.386 87.921-10.258 26.67-25.937 49.53-47.038 68.579-21.101 19.05-47.844 33.923-80.228 44.62-32.384 10.697-70.703 16.045-114.957 16.045h-77.37V840H146.178V199.496h225.957Z"/>
</svg>